# xmcd CD database file
#
# Track frame offsets:
#	150
#	16938
#	37182
#	49544
#	64040
#	77693
#	97243
#	111927
#	128629
#	145752
#	162559
#
# Disc length: 2328 seconds
#
# Revision: 0
# Processed by: cddbd v1.5.2PL0 Copyright (c) Steve Scherf et al.
# Submitted via: CDex 1.77
#
DISCID=9309160b
DTITLE=Shelby Lynne - Revelation Road
DYEAR=2011
DGENRE=Country
TTITLE0=01 Revelation Road
TTITLE1=02 I'll Hold Your Head
TTITLE2=03 Even Angels
TTITLE3=04 Lead Me Love
TTITLE4=05 The Thief
TTITLE5=06 Woebegone
TTITLE6=07 I Want To Go Back
TTITLE7=08 I Don't Need A Reason To Cry
TTITLE8=09 Toss It All Aside
TTITLE9=10 Heaven's Only Days Down The Road
TTITLE10=11 I Won't Leave You
EXTD=YEAR: 2011
EXTT0=
EXTT1=
EXTT2=
EXTT3=
EXTT4=
EXTT5=
EXTT6=
EXTT7=
EXTT8=
EXTT9=
EXTT10=
PLAYORDER=
